<?xml version="1.0" standalone="yes"?>
<svg xmlns="http://www.w3.org/2000/svg" width="300" height="125">
<path style="fill:#010102; stroke:none;" d="M0 0L0 125L300 125L300 89L268 89L268 81L290.397 79.9722L292 68L292 35L300 35L300 0L0 0z"/>
<path style="fill:#05c5fa; stroke:none;" d="M143 35L143 89L151 89L151 43L174 43L174 35L143 35M217 79C208.377 73.6778 191.729 88.5005 187.434 73.0008C186.815 70.7674 187.007 68.2921 187 66C193.258 66 199.806 66.899 206 65.8002C216.432 63.9495 221.942 50.7357 215.486 42.0432C207.647 31.4877 183.961 32.326 179.653 46.0008C178.028 51.1571 179 57.6498 179 63C179 68.7166 177.969 75.6913 180.573 80.9846C187.012 94.078 211.406 90.8877 217 79M227 45L232 49L233 49C242.941 40.1385 256.319 42.1297 257 57C251.388 57 245.556 56.545 240 57.4398C228.328 59.3198 219.72 72.3574 228.43 82.892C237.11 93.3905 260.026 90.296 264.196 77C265.845 71.7439 265 65.4426 265 60C265 54.062 265.619 47.4199 262.442 42.0934C255.837 31.0197 230.731 31.9917 227 45M292 35L292 81L270 81L270 89L300 89L300 35L292 35z"/>
<path style="fill:#02475e; stroke:none;" d="M141 36L141 88L143 88L143 36L141 36M174 36L174 42L175 42L174 36M290 36L290 80L291 80C291 67.5196 294.81 47.4634 290 36M186 37L187 38L186 37M184 38L185 39L184 38M230.667 38.3333L231.333 38.6667L230.667 38.3333M259 38L260 39L259 38M183 39L184 40L183 39M213 39L214 40L213 39M229 39L230 40L229 39M214 40L215 41L214 40M228 40L229 41L228 40M261 40L262 41L261 40M181 41L182 42L181 41M215 41L216 42L215 41M227 41L228 42L227 41M262 41L263 42L262 41M180 42L181 43L180 42M216 42L217 43L216 42M226 42L226 45L227 45L226 42M263.333 42.6667L263.667 43.3333L263.333 42.6667M151 43L151 88L152 88C152 75.258 155.91 54.7012 151 43z"/>
<path style="fill:#036c8f; stroke:none;" d="M179.667 43.3333L180.333 43.6667L179.667 43.3333z"/>
<path style="fill:#010102; stroke:none;" d="M188 59L204 59L210 55L210 47C207.217 47 206.76 44.3053 204 43.3333C190.62 38.622 188 48.7402 188 59z"/>
<path style="fill:#02475e; stroke:none;" d="M217 43L217 46L218 46L217 43z"/>
<path style="fill:#010102; stroke:none;" d="M226 43L227 44L226 43z"/>
<path style="fill:#02475e; stroke:none;" d="M178 44L179 45L178 44z"/>
<path style="fill:#010102; stroke:none;" d="M179 44L180 45L179 44z"/>
<path style="fill:#02475e; stroke:none;" d="M206 44L207 45L206 44M251 44L252 45L251 44M264 44L264 48L265 48L264 44z"/>
<path style="fill:#036c8f; stroke:none;" d="M178.667 45.3333L179.333 45.6667L178.667 45.3333z"/>
<path style="fill:#02475e; stroke:none;" d="M207.667 45.3333L208.333 45.6667L207.667 45.3333M227 45L231 48L231 47L227 45z"/>
<path style="fill:#036c8f; stroke:none;" d="M228 45L229 46L228 45z"/>
<path style="fill:#02475e; stroke:none;" d="M236 45L237 46L236 45M252 45L255 47L255 46L252 45z"/>
<path style="fill:#010102; stroke:none;" d="M253 45L254 46L253 45z"/>
<path style="fill:#02475e; stroke:none;" d="M178 46C175.473 54.5492 175.473 69.4508 178 78L179 78L178 46M188.333 46.6667L188.667 47.3333L188.333 46.6667z"/>
<path style="fill:#036c8f; stroke:none;" d="M208.667 46.3333L209.333 46.6667L208.667 46.3333z"/>
<path style="fill:#02475e; stroke:none;" d="M218 46L218 56L219 56L218 46M235 46L236 47L235 46z"/>
<path style="fill:#010102; stroke:none;" d="M178 47L179 48L178 47z"/>
<path style="fill:#02475e; stroke:none;" d="M208 47L209 48L208 47M234 47L235 48L234 47z"/>
<path style="fill:#036c8f; stroke:none;" d="M254 47L255 48L254 47z"/>
<path style="fill:#02475e; stroke:none;" d="M187 48L187 59L188 59L187 48z"/>
<path style="fill:#036c8f; stroke:none;" d="M209 48L209 53L209 48z"/>
<path style="fill:#02475e; stroke:none;" d="M231 48L232 49L231 48M254 48L256 50L254 48z"/>
<path style="fill:#010102; stroke:none;" d="M255 48L256 49L255 48z"/>
<path style="fill:#02475e; stroke:none;" d="M265 49L265 76L266 76L265 49z"/>
<path style="fill:#036c8f; stroke:none;" d="M178 50L178 73L179 73L178 50z"/>
<path style="fill:#02475e; stroke:none;" d="M209.333 50.6667L209.667 51.3333L209.333 50.6667z"/>
<path style="fill:#036c8f; stroke:none;" d="M255 50L255 57L257 57L255 50z"/>
<path style="fill:#02475e; stroke:none;" d="M209 53L210 54L209 53M208 54L209 55L208 54z"/>
<path style="fill:#036c8f; stroke:none;" d="M208.333 55.6667L208.667 56.3333L208.333 55.6667z"/>
<path style="fill:#02475e; stroke:none;" d="M207 56L208 57L207 56M217 56L217 59L218 59L217 56M206 57L207 58L206 57M216 59L217 60L216 59M215 60L216 61L215 60M230 60L231 61L230 60M214 61L215 62L214 61M228 61L224 69L225 69L228 61M213 62L214 63L213 62z"/>
<path style="fill:#010102; stroke:none;" d="M228 62L229 63L228 62M227 63L228 64L227 63M255 78L254 75L256 76L255 65C249.903 65 241.447 63.3896 237.148 66.6034C232.257 70.2598 233.524 77.9147 239.019 80.1065C244.357 82.2355 250.067 80.1328 255 78z"/>
<path style="fill:#036c8f; stroke:none;" d="M255 65L255 74L256 74L257 65L255 65M187 66L187 67L199 67L187 66M200 66L201 67L200 66z"/>
<path style="fill:#02475e; stroke:none;" d="M236 66L237 67L236 66M187 67L187 75L188 75L187 67z"/>
<path style="fill:#010102; stroke:none;" d="M225 67L226 68L225 67z"/>
<path style="fill:#02475e; stroke:none;" d="M235 67L236 68L235 67z"/>
<path style="fill:#036c8f; stroke:none;" d="M225 68L224 71L225 71L225 68z"/>
<path style="fill:#02475e; stroke:none;" d="M234 68L235 69L234 68z"/>
<path style="fill:#0101ff; stroke:none;" d="M225 69L226 70L225 69z"/>
<path style="fill:#02475e; stroke:none;" d="M233 69L233 77L234 77L233 69M224 71L224 75L225 75L224 71M255 74L256 75L255 74z"/>
<path style="fill:#010102; stroke:none;" d="M178.333 75.6667L178.667 76.3333L178.333 75.6667z"/>
<path style="fill:#02475e; stroke:none;" d="M188.333 75.6667L188.667 76.3333L188.333 75.6667M209 75L210 76L209 75z"/>
<path style="fill:#036c8f; stroke:none;" d="M224 75L224 77L226 77L224 75z"/>
<path style="fill:#02475e; stroke:none;" d="M254 75L255 76L254 75z"/>
<path style="fill:#036c8f; stroke:none;" d="M208 76L209 77L208 76z"/>
<path style="fill:#02475e; stroke:none;" d="M213 76L214 77L213 76z"/>
<path style="fill:#036c8f; stroke:none;" d="M254.667 76.3333L255.333 76.6667L254.667 76.3333z"/>
<path style="fill:#02475e; stroke:none;" d="M264 76L264 79L265 79L264 76M189 77L190 78L189 77M207 77L208 78L207 77M214 77L215 78L214 77M224 77L224 79L226 77L224 77M234 77L235 78L234 77M253 77L254 78L253 77z"/>
<path style="fill:#036c8f; stroke:none;" d="M178.667 78.3333L179.333 78.6667L178.667 78.3333z"/>
<path style="fill:#02475e; stroke:none;" d="M206 78L207 79L206 78M215 78L216 79L215 78z"/>
<path style="fill:#010102; stroke:none;" d="M225 78L226 79L225 78z"/>
<path style="fill:#02475e; stroke:none;" d="M235 78L236 79L235 78M252 78L253 79L252 78M178 79L180 83L181 83L178 79M204 79L205 80L204 79z"/>
<path style="fill:#036c8f; stroke:none;" d="M225 79L226 80L225 79z"/>
<path style="fill:#02475e; stroke:none;" d="M263.333 79.6667L263.667 80.3333L263.333 79.6667M217 80L218 81L217 80M225 80L226 81L225 80z"/>
<path style="fill:#010102; stroke:none;" d="M226 80L227 81L226 80z"/>
<path style="fill:#02475e; stroke:none;" d="M291 80L292 81L291 80M216 81L217 82L216 81z"/>
<path style="fill:#036c8f; stroke:none;" d="M226 81L227 82L226 81z"/>
<path style="fill:#02475e; stroke:none;" d="M262 81L263 82L262 81M268 81L269 82L268 81z"/>
<path style="fill:#036c8f; stroke:none;" d="M269 81L268 88L269 81z"/>
<path style="fill:#02475e; stroke:none;" d="M215 82L216 83L215 82M227 82L228 83L227 82M261 82L262 83L261 82M181 83L182 84L181 83M214 83L215 84L214 83M228 83L229 84L228 83M260 83L261 84L260 83M268 83L268 87L269 87L268 83M213 84L214 85L213 84M229 84L230 85L229 84M259 84L260 85L259 84M183 85L184 86L183 85M230 85L231 86L230 85M184 86L185 87L184 86z"/>
<path style="fill:#036c8f; stroke:none;" d="M204 88L205 89L204 88z"/>
<path style="fill:#02475e; stroke:none;" d="M268.667 88.3333L269.333 88.6667L268.667 88.3333z"/>
</svg>
